<svg xmlns="http://www.w3.org/2000/svg" xmlns:xlink="http://www.w3.org/1999/xlink" width="512" zoomAndPan="magnify" viewBox="0 0 384 383.999986" height="512" preserveAspectRatio="xMidYMid meet" version="1.0"><defs><clipPath id="d261b39f21"><path d="M 34 273 L 85 273 L 85 345.898438 L 34 345.898438 Z M 34 273 " clip-rule="nonzero"/></clipPath><clipPath id="9ece4d0b2e"><path d="M 172 277 L 223 277 L 223 345.898438 L 172 345.898438 Z M 172 277 " clip-rule="nonzero"/></clipPath><clipPath id="a80b491185"><path d="M 103 239 L 154 239 L 154 345.898438 L 103 345.898438 Z M 103 239 " clip-rule="nonzero"/></clipPath><clipPath id="f2429ff580"><path d="M 241 208 L 292 208 L 292 345.898438 L 241 345.898438 Z M 241 208 " clip-rule="nonzero"/></clipPath><clipPath id="7580696713"><path d="M 310 169 L 361 169 L 361 345.898438 L 310 345.898438 Z M 310 169 " clip-rule="nonzero"/></clipPath><clipPath id="cf226437a9"><path d="M 0 38.398438 L 384 38.398438 L 384 281 L 0 281 Z M 0 38.398438 " clip-rule="nonzero"/></clipPath></defs><g clip-path="url(#d261b39f21)"><path fill="#ffffff" d="M 84.578125 274.507812 C 84.578125 274.148438 84.414062 273.902344 84.082031 273.761719 C 83.746094 273.625 83.453125 273.683594 83.199219 273.9375 L 34.882812 322.265625 C 34.722656 322.421875 34.644531 322.613281 34.644531 322.835938 L 34.648438 343.808594 C 34.648438 344.035156 34.691406 344.253906 34.78125 344.464844 C 34.867188 344.675781 34.992188 344.863281 35.152344 345.023438 C 35.3125 345.183594 35.5 345.308594 35.710938 345.398438 C 35.921875 345.484375 36.140625 345.527344 36.367188 345.527344 L 82.867188 345.527344 C 83.09375 345.527344 83.3125 345.484375 83.523438 345.398438 C 83.734375 345.308594 83.921875 345.183594 84.082031 345.023438 C 84.242188 344.863281 84.367188 344.675781 84.457031 344.464844 C 84.542969 344.253906 84.585938 344.035156 84.585938 343.808594 Z M 84.578125 274.507812 " fill-opacity="1" fill-rule="nonzero"/></g><g clip-path="url(#9ece4d0b2e)"><path fill="#ffffff" d="M 222.554688 278.75 C 222.554688 278.390625 222.386719 278.140625 222.054688 278.003906 C 221.722656 277.867188 221.429688 277.925781 221.175781 278.179688 L 190.816406 308.539062 C 190.660156 308.695312 190.46875 308.777344 190.246094 308.777344 C 190.023438 308.777344 189.832031 308.695312 189.675781 308.539062 L 173.996094 292.859375 C 173.742188 292.605469 173.445312 292.546875 173.113281 292.6875 C 172.78125 292.824219 172.617188 293.070312 172.617188 293.433594 L 172.621094 343.808594 C 172.621094 344.035156 172.664062 344.253906 172.753906 344.464844 C 172.839844 344.675781 172.964844 344.863281 173.125 345.023438 C 173.285156 345.183594 173.472656 345.308594 173.683594 345.394531 C 173.894531 345.484375 174.113281 345.527344 174.339844 345.527344 L 220.839844 345.527344 C 221.066406 345.527344 221.289062 345.484375 221.5 345.394531 C 221.707031 345.308594 221.894531 345.183594 222.054688 345.023438 C 222.21875 344.863281 222.339844 344.675781 222.429688 344.464844 C 222.515625 344.253906 222.558594 344.035156 222.558594 343.808594 Z M 222.554688 278.75 " fill-opacity="1" fill-rule="nonzero"/></g><g clip-path="url(#a80b491185)"><path fill="#ffffff" d="M 153.566406 272.769531 C 153.566406 272.546875 153.488281 272.355469 153.332031 272.195312 L 120.972656 239.839844 C 120.730469 239.597656 120.445312 239.410156 120.128906 239.277344 C 119.808594 239.144531 119.476562 239.078125 119.132812 239.078125 C 118.785156 239.078125 118.453125 239.144531 118.136719 239.277344 C 117.816406 239.410156 117.535156 239.597656 117.289062 239.839844 L 103.867188 253.269531 C 103.707031 253.425781 103.628906 253.617188 103.628906 253.839844 L 103.636719 343.808594 C 103.636719 344.035156 103.679688 344.253906 103.765625 344.464844 C 103.855469 344.675781 103.976562 344.863281 104.140625 345.023438 C 104.300781 345.183594 104.484375 345.308594 104.695312 345.398438 C 104.90625 345.484375 105.125 345.527344 105.355469 345.527344 L 151.855469 345.527344 C 152.082031 345.527344 152.300781 345.484375 152.511719 345.394531 C 152.722656 345.308594 152.910156 345.183594 153.070312 345.023438 C 153.230469 344.863281 153.355469 344.675781 153.441406 344.464844 C 153.53125 344.253906 153.574219 344.035156 153.574219 343.808594 Z M 153.566406 272.769531 " fill-opacity="1" fill-rule="nonzero"/></g><g clip-path="url(#f2429ff580)"><path fill="#ffffff" d="M 291.539062 209.757812 C 291.539062 209.398438 291.371094 209.148438 291.039062 209.011719 C 290.707031 208.875 290.414062 208.933594 290.160156 209.1875 L 241.839844 257.511719 C 241.683594 257.667969 241.601562 257.859375 241.601562 258.082031 L 241.609375 343.808594 C 241.609375 344.035156 241.652344 344.253906 241.738281 344.464844 C 241.828125 344.675781 241.949219 344.863281 242.113281 345.023438 C 242.273438 345.183594 242.460938 345.308594 242.671875 345.398438 C 242.878906 345.484375 243.101562 345.527344 243.328125 345.527344 L 289.828125 345.527344 C 290.054688 345.527344 290.273438 345.484375 290.484375 345.398438 C 290.695312 345.308594 290.882812 345.183594 291.042969 345.023438 C 291.203125 344.863281 291.328125 344.675781 291.414062 344.464844 C 291.503906 344.253906 291.546875 344.035156 291.546875 343.808594 Z M 291.539062 209.757812 " fill-opacity="1" fill-rule="nonzero"/></g><g clip-path="url(#7580696713)"><path fill="#ffffff" d="M 360.523438 198.472656 C 360.523438 198.25 360.445312 198.058594 360.289062 197.902344 L 332.707031 170.316406 C 332.464844 170.074219 332.183594 169.886719 331.863281 169.753906 C 331.546875 169.621094 331.214844 169.554688 330.867188 169.554688 C 330.523438 169.554688 330.191406 169.621094 329.871094 169.753906 C 329.550781 169.886719 329.269531 170.074219 329.027344 170.316406 L 310.824219 188.523438 C 310.667969 188.679688 310.589844 188.871094 310.589844 189.09375 L 310.59375 343.808594 C 310.59375 344.035156 310.640625 344.253906 310.726562 344.464844 C 310.8125 344.675781 310.9375 344.863281 311.097656 345.023438 C 311.261719 345.183594 311.445312 345.308594 311.65625 345.398438 C 311.867188 345.484375 312.085938 345.527344 312.3125 345.527344 L 358.8125 345.527344 C 359.042969 345.527344 359.261719 345.484375 359.472656 345.398438 C 359.683594 345.308594 359.867188 345.183594 360.027344 345.023438 C 360.191406 344.863281 360.3125 344.675781 360.402344 344.464844 C 360.488281 344.253906 360.53125 344.035156 360.53125 343.808594 Z M 360.523438 198.472656 " fill-opacity="1" fill-rule="nonzero"/></g><g clip-path="url(#cf226437a9)"><path fill="#ffffff" d="M 380.953125 38.597656 L 269.507812 60.039062 C 269.054688 60.128906 268.65625 60.324219 268.3125 60.632812 C 267.972656 60.941406 267.730469 61.316406 267.597656 61.753906 C 267.460938 62.195312 267.449219 62.640625 267.5625 63.085938 C 267.671875 63.535156 267.890625 63.921875 268.214844 64.246094 L 295.554688 91.585938 L 192.085938 195.066406 C 191.839844 195.3125 191.558594 195.5 191.238281 195.632812 C 190.921875 195.765625 190.589844 195.828125 190.242188 195.828125 C 189.898438 195.828125 189.566406 195.765625 189.246094 195.632812 C 188.929688 195.5 188.644531 195.3125 188.402344 195.066406 L 121.503906 128.179688 C 121.191406 127.863281 120.828125 127.621094 120.414062 127.449219 C 120.003906 127.277344 119.574219 127.191406 119.128906 127.191406 C 118.679688 127.191406 118.253906 127.277344 117.839844 127.449219 C 117.429688 127.621094 117.066406 127.863281 116.75 128.179688 L 0.984375 243.953125 C 0.667969 244.269531 0.425781 244.632812 0.257812 245.042969 C 0.0859375 245.457031 0 245.886719 0 246.332031 C 0 246.777344 0.0859375 247.207031 0.257812 247.617188 C 0.425781 248.03125 0.667969 248.394531 0.984375 248.710938 L 31.542969 279.261719 C 31.859375 279.578125 32.222656 279.820312 32.632812 279.992188 C 33.046875 280.160156 33.476562 280.246094 33.921875 280.246094 C 34.367188 280.246094 34.796875 280.160156 35.207031 279.992188 C 35.621094 279.820312 35.984375 279.578125 36.296875 279.261719 L 117.289062 198.261719 C 117.535156 198.019531 117.816406 197.832031 118.136719 197.699219 C 118.453125 197.566406 118.785156 197.5 119.132812 197.5 C 119.476562 197.5 119.808594 197.566406 120.128906 197.699219 C 120.445312 197.832031 120.726562 198.019531 120.972656 198.261719 L 187.867188 265.15625 C 188.179688 265.46875 188.542969 265.714844 188.957031 265.882812 C 189.367188 266.054688 189.796875 266.140625 190.242188 266.140625 C 190.6875 266.140625 191.117188 266.054688 191.53125 265.882812 C 191.941406 265.714844 192.304688 265.46875 192.621094 265.15625 L 330.867188 126.898438 L 358.207031 154.242188 C 358.535156 154.566406 358.921875 154.785156 359.367188 154.894531 C 359.816406 155.007812 360.257812 154.996094 360.699219 154.859375 C 361.140625 154.726562 361.515625 154.484375 361.824219 154.144531 C 362.132812 153.800781 362.328125 153.402344 362.414062 152.949219 L 383.871094 41.515625 C 383.910156 41.316406 383.921875 41.113281 383.910156 40.910156 C 383.902344 40.707031 383.867188 40.507812 383.804688 40.3125 C 383.746094 40.117188 383.664062 39.933594 383.558594 39.757812 C 383.453125 39.585938 383.328125 39.425781 383.1875 39.28125 C 383.042969 39.136719 382.882812 39.015625 382.707031 38.910156 C 382.535156 38.804688 382.347656 38.722656 382.15625 38.664062 C 381.960938 38.601562 381.761719 38.566406 381.558594 38.554688 C 381.355469 38.546875 381.152344 38.558594 380.953125 38.597656 Z M 380.953125 38.597656 " fill-opacity="1" fill-rule="nonzero"/></g></svg>