<svg xmlns="http://www.w3.org/2000/svg" xmlns:xlink="http://www.w3.org/1999/xlink" width="512" zoomAndPan="magnify" viewBox="0 0 384 383.999986" height="512" preserveAspectRatio="xMidYMid meet" version="1.0"><path fill="#ffffff" d="M 83.667969 -0.578125 L 211.023438 -0.578125 L 211.023438 70.375 C 211.035156 71.671875 211.109375 72.964844 211.246094 74.253906 C 211.386719 75.542969 211.585938 76.824219 211.851562 78.09375 C 212.113281 79.367188 212.4375 80.621094 212.824219 81.859375 C 213.207031 83.097656 213.652344 84.3125 214.160156 85.507812 C 214.664062 86.703125 215.222656 87.871094 215.84375 89.011719 C 216.460938 90.152344 217.132812 91.261719 217.859375 92.335938 C 218.585938 93.410156 219.363281 94.445312 220.191406 95.445312 C 221.019531 96.445312 221.894531 97.398438 222.816406 98.3125 C 223.734375 99.226562 224.699219 100.09375 225.703125 100.914062 C 226.710938 101.734375 227.753906 102.5 228.835938 103.21875 C 229.914062 103.9375 231.027344 104.601562 232.171875 105.207031 C 233.320312 105.816406 234.492188 106.371094 235.691406 106.863281 C 236.890625 107.359375 238.109375 107.792969 239.351562 108.167969 C 240.59375 108.542969 241.851562 108.859375 243.125 109.109375 C 244.394531 109.363281 245.675781 109.554688 246.96875 109.679688 C 248.257812 109.808594 249.554688 109.871094 250.851562 109.875 L 321.707031 109.875 L 321.707031 360.34375 C 321.710938 361.070312 321.683594 361.792969 321.613281 362.515625 C 321.546875 363.242188 321.445312 363.960938 321.308594 364.671875 C 321.171875 365.386719 320.996094 366.089844 320.789062 366.785156 C 320.582031 367.484375 320.339844 368.167969 320.066406 368.839844 C 319.789062 369.511719 319.480469 370.167969 319.140625 370.808594 C 318.800781 371.453125 318.429688 372.074219 318.027344 372.679688 C 317.625 373.285156 317.191406 373.867188 316.730469 374.429688 C 316.273438 374.992188 315.785156 375.53125 315.273438 376.046875 C 314.757812 376.558594 314.21875 377.046875 313.660156 377.507812 C 313.097656 377.96875 312.515625 378.398438 311.910156 378.800781 C 311.304688 379.207031 310.679688 379.578125 310.039062 379.917969 C 309.398438 380.261719 308.742188 380.570312 308.070312 380.84375 C 307.398438 381.121094 306.714844 381.363281 306.019531 381.570312 C 305.320312 381.78125 304.617188 381.953125 303.902344 382.089844 C 303.191406 382.230469 302.472656 382.332031 301.75 382.402344 C 301.027344 382.46875 300.300781 382.5 299.574219 382.496094 L 83.667969 382.496094 C 82.933594 382.5 82.203125 382.472656 81.476562 382.40625 C 80.746094 382.339844 80.023438 382.238281 79.304688 382.101562 C 78.582031 381.964844 77.875 381.796875 77.171875 381.589844 C 76.46875 381.382812 75.777344 381.140625 75.101562 380.867188 C 74.421875 380.59375 73.757812 380.285156 73.109375 379.949219 C 72.460938 379.609375 71.832031 379.238281 71.21875 378.835938 C 70.605469 378.433594 70.015625 378.003906 69.445312 377.546875 C 68.875 377.085938 68.332031 376.601562 67.808594 376.085938 C 67.285156 375.574219 66.792969 375.035156 66.320312 374.476562 C 65.851562 373.914062 65.414062 373.328125 65 372.722656 C 64.589844 372.121094 64.207031 371.496094 63.855469 370.851562 C 63.507812 370.210938 63.1875 369.554688 62.902344 368.878906 C 62.617188 368.207031 62.363281 367.519531 62.144531 366.820312 C 61.925781 366.121094 61.742188 365.414062 61.59375 364.699219 C 61.445312 363.980469 61.332031 363.257812 61.253906 362.53125 C 61.175781 361.804688 61.132812 361.074219 61.128906 360.34375 L 61.128906 21.554688 C 61.132812 20.824219 61.175781 20.09375 61.257812 19.367188 C 61.335938 18.640625 61.449219 17.917969 61.597656 17.203125 C 61.746094 16.484375 61.929688 15.777344 62.148438 15.082031 C 62.371094 14.382812 62.621094 13.695312 62.90625 13.023438 C 63.195312 12.351562 63.511719 11.691406 63.863281 11.050781 C 64.214844 10.410156 64.59375 9.785156 65.007812 9.179688 C 65.417969 8.578125 65.859375 7.992188 66.328125 7.433594 C 66.796875 6.871094 67.292969 6.335938 67.816406 5.824219 C 68.335938 5.308594 68.882812 4.824219 69.453125 4.367188 C 70.023438 3.90625 70.613281 3.476562 71.226562 3.074219 C 71.835938 2.675781 72.464844 2.304688 73.113281 1.964844 C 73.761719 1.625 74.425781 1.320312 75.105469 1.046875 C 75.78125 0.773438 76.472656 0.53125 77.175781 0.324219 C 77.875 0.121094 78.585938 -0.0507812 79.304688 -0.1875 C 80.023438 -0.324219 80.746094 -0.425781 81.476562 -0.492188 C 82.203125 -0.554688 82.933594 -0.585938 83.667969 -0.578125 Z M 103.90625 322.558594 L 278.925781 322.558594 L 278.925781 305.191406 L 103.90625 305.191406 Z M 103.90625 270.460938 L 278.925781 270.460938 L 278.925781 252.898438 L 103.90625 252.898438 Z M 103.90625 218.183594 L 278.925781 218.183594 L 278.925781 200.683594 L 103.90625 200.683594 Z M 103.90625 165.910156 L 278.925781 165.910156 L 278.925781 148.757812 L 103.90625 148.757812 Z M 103.90625 165.910156 " fill-opacity="1" fill-rule="nonzero"/><path fill="#ffffff" d="M 228.621094 70.375 L 228.621094 11.578125 L 269.144531 51.964844 L 309.378906 92.625 L 250.851562 92.625 C 250.121094 92.625 249.394531 92.589844 248.667969 92.519531 C 247.941406 92.453125 247.222656 92.347656 246.507812 92.207031 C 245.792969 92.0625 245.085938 91.886719 244.386719 91.679688 C 243.691406 91.46875 243.003906 91.222656 242.332031 90.945312 C 241.65625 90.667969 241 90.355469 240.355469 90.011719 C 239.710938 89.667969 239.085938 89.296875 238.480469 88.890625 C 237.875 88.484375 237.289062 88.050781 236.726562 87.589844 C 236.164062 87.128906 235.625 86.636719 235.109375 86.121094 C 234.59375 85.605469 234.105469 85.066406 233.640625 84.503906 C 233.179688 83.9375 232.746094 83.355469 232.34375 82.746094 C 231.9375 82.140625 231.566406 81.515625 231.222656 80.871094 C 230.878906 80.230469 230.570312 79.570312 230.292969 78.894531 C 230.015625 78.222656 229.769531 77.535156 229.5625 76.839844 C 229.351562 76.140625 229.175781 75.433594 229.035156 74.71875 C 228.894531 74.003906 228.789062 73.28125 228.722656 72.554688 C 228.652344 71.832031 228.617188 71.101562 228.621094 70.375 Z M 228.621094 70.375 " fill-opacity="1" fill-rule="nonzero"/></svg>