<svg xmlns="http://www.w3.org/2000/svg" xmlns:xlink="http://www.w3.org/1999/xlink" width="512" zoomAndPan="magnify" viewBox="0 0 384 383.999986" height="512" preserveAspectRatio="xMidYMid meet" version="1.0"><defs><clipPath id="54b02c05ea"><path d="M 10.425781 0 L 373.320312 0 L 373.320312 384 L 10.425781 384 Z M 10.425781 0 " clip-rule="nonzero"/></clipPath></defs><g clip-path="url(#54b02c05ea)"><path fill="#ffffff" d="M 340.128906 147.777344 C 335.960938 99.589844 307.433594 55.148438 267.476562 28.527344 C 245.578125 13.941406 220.207031 4.988281 194.164062 1.601562 C 122.386719 -7.734375 46.792969 23.792969 19.714844 94.296875 C -3.5625 154.902344 19.386719 215.074219 61.074219 260.96875 C 76.113281 277.527344 78.199219 308.664062 78.199219 329.636719 L 78.199219 372.175781 C 78.199219 378.707031 83.492188 384 90.027344 384 L 243.9375 384 C 250.167969 384 255.320312 379.164062 255.738281 372.949219 C 256.304688 364.582031 257.238281 357.222656 257.238281 357.222656 C 260.453125 343.425781 272.222656 332.355469 297.246094 336.375 C 323.503906 340.582031 340.0625 332.761719 341.535156 315.28125 C 342.019531 309.515625 342.335938 260.257812 342.335938 260.257812 C 343.589844 259.539062 351.820312 257.902344 363.816406 255.179688 C 373.144531 253.054688 376.429688 241.472656 369.628906 234.746094 C 342.355469 207.765625 338.695312 195.1875 338.019531 192.476562 C 334.640625 179.027344 341.351562 161.910156 340.128906 147.777344 Z M 289.292969 131.675781 C 285.503906 136.476562 281.191406 137.414062 278.90625 137.539062 C 278.152344 137.582031 277.628906 138.296875 277.835938 139.019531 C 279.007812 143.148438 280.199219 154.523438 259.835938 158.953125 C 240.738281 163.105469 229.1875 177.957031 221.648438 185.503906 C 215.851562 191.292969 208.015625 193.96875 200.199219 195.734375 C 192.214844 197.527344 184.300781 199.101562 177.996094 204.773438 C 171.363281 210.753906 162 243.667969 160.410156 249.390625 C 160.273438 249.890625 159.8125 250.238281 159.292969 250.238281 L 149.492188 250.238281 C 148.941406 250.238281 148.464844 249.851562 148.351562 249.3125 L 143.601562 226.847656 C 143.402344 225.90625 97.359375 229.691406 93.816406 209.140625 C 93.691406 208.421875 92.964844 207.972656 92.273438 208.222656 C 87.847656 209.816406 73.644531 213.75 65.980469 201.871094 C 60.542969 193.449219 61.988281 185.582031 62.742188 182.871094 C 62.902344 182.308594 62.617188 181.722656 62.082031 181.492188 C 58.175781 179.8125 44.0625 171.898438 45.976562 145.867188 C 47.519531 124.875 61.71875 115.574219 59.730469 112.34375 C 54.003906 103.039062 58.984375 87.605469 70.710938 84.160156 C 71.183594 84.019531 71.519531 83.605469 71.5625 83.113281 L 72.058594 77.644531 C 73.6875 58.355469 99.03125 46.128906 116.265625 54.148438 C 116.929688 54.460938 117.722656 54.125 117.941406 53.429688 C 120.097656 46.59375 124.453125 44.707031 125.613281 44.054688 C 130.957031 41.050781 137.894531 41.421875 143.417969 43.6875 C 143.863281 43.871094 144.375 43.761719 144.699219 43.40625 C 146.269531 41.726562 152.707031 36.390625 163.363281 36.390625 C 174.289062 36.390625 179.847656 41.703125 181.789062 43.1875 C 182.144531 43.464844 182.625 43.511719 183.027344 43.308594 C 185.484375 42.050781 194.464844 38.027344 203.453125 41.125 C 210.242188 43.46875 214.09375 49.644531 215.308594 51.894531 C 215.566406 52.375 216.109375 52.621094 216.644531 52.5 C 219.867188 51.730469 231.011719 49.589844 240.378906 53.820312 C 250.273438 58.292969 253.363281 64.757812 254.148438 66.925781 C 254.308594 67.367188 254.722656 67.660156 255.191406 67.679688 C 257.339844 67.765625 263.257812 68.285156 266.917969 71.363281 C 273.382812 76.792969 272.75 81.078125 272.007812 82.914062 C 271.78125 83.46875 272.03125 84.109375 272.570312 84.375 C 275.523438 85.824219 283.796875 90.605469 288.933594 100.757812 C 295.996094 114.753906 293.167969 126.761719 289.292969 131.675781 Z M 289.292969 131.675781 " fill-opacity="1" fill-rule="nonzero"/></g></svg>