<svg xmlns="http://www.w3.org/2000/svg" xmlns:xlink="http://www.w3.org/1999/xlink" width="512" zoomAndPan="magnify" viewBox="0 0 384 383.999986" height="512" preserveAspectRatio="xMidYMid meet" version="1.0"><defs><clipPath id="0dd177e4e2"><path d="M 250 271 L 367 271 L 367 374.609375 L 250 374.609375 Z M 250 271 " clip-rule="nonzero"/></clipPath><clipPath id="69a2a2c4b7"><path d="M 17 271 L 134 271 L 134 374.609375 L 17 374.609375 Z M 17 271 " clip-rule="nonzero"/></clipPath><clipPath id="476ea93f81"><path d="M 250 9.359375 L 367 9.359375 L 367 113 L 250 113 Z M 250 9.359375 " clip-rule="nonzero"/></clipPath><clipPath id="4f785c807e"><path d="M 17 9.359375 L 134 9.359375 L 134 113 L 17 113 Z M 17 9.359375 " clip-rule="nonzero"/></clipPath></defs><g clip-path="url(#0dd177e4e2)"><path fill="#ffffff" d="M 250.859375 374.636719 C 302.503906 357.980469 344.632812 320.070312 366.734375 271.117188 L 305.804688 271.117188 C 295.136719 315.699219 275.644531 352.148438 250.859375 374.636719 " fill-opacity="1" fill-rule="nonzero"/></g><path fill="#ffffff" d="M 207.347656 271.117188 L 207.347656 365.886719 C 236.046875 356.140625 260.757812 319.84375 273.882812 271.117188 L 207.347656 271.117188 " fill-opacity="1" fill-rule="nonzero"/><path fill="#ffffff" d="M 176.652344 365.886719 L 176.652344 271.117188 L 110.042969 271.117188 C 123.167969 319.84375 147.875 356.140625 176.652344 365.886719 " fill-opacity="1" fill-rule="nonzero"/><g clip-path="url(#69a2a2c4b7)"><path fill="#ffffff" d="M 78.199219 271.117188 L 17.265625 271.117188 C 39.367188 320.070312 81.496094 358.058594 133.222656 374.636719 C 108.28125 352.226562 88.789062 315.777344 78.199219 271.117188 " fill-opacity="1" fill-rule="nonzero"/></g><path fill="#ffffff" d="M 377.554688 143.269531 L 311.40625 143.269531 C 313.554688 158.847656 314.78125 175.191406 314.78125 191.996094 C 314.78125 208.726562 313.628906 224.917969 311.484375 240.421875 L 377.632812 240.421875 C 381.695312 224.996094 383.84375 208.726562 383.84375 191.996094 C 383.84375 175.117188 381.695312 158.847656 377.554688 143.269531 " fill-opacity="1" fill-rule="nonzero"/><path fill="#ffffff" d="M 284.085938 191.996094 C 284.085938 175.191406 282.707031 158.847656 280.324219 143.269531 L 207.347656 143.269531 L 207.347656 240.421875 L 280.324219 240.421875 C 282.707031 224.917969 284.085938 208.726562 284.085938 191.996094 " fill-opacity="1" fill-rule="nonzero"/><path fill="#ffffff" d="M 99.914062 191.996094 C 99.914062 208.726562 101.21875 224.917969 103.597656 240.421875 L 176.652344 240.421875 L 176.652344 143.269531 L 103.597656 143.269531 C 101.21875 158.847656 99.914062 175.191406 99.914062 191.996094 " fill-opacity="1" fill-rule="nonzero"/><path fill="#ffffff" d="M 69.21875 191.996094 C 69.21875 175.191406 70.371094 158.847656 72.519531 143.269531 L 6.445312 143.269531 C 2.304688 158.847656 0.15625 175.117188 0.15625 191.996094 C 0.15625 208.726562 2.304688 224.996094 6.371094 240.421875 L 72.445312 240.421875 C 70.371094 224.917969 69.21875 208.726562 69.21875 191.996094 " fill-opacity="1" fill-rule="nonzero"/><g clip-path="url(#476ea93f81)"><path fill="#ffffff" d="M 366.578125 112.574219 C 344.476562 63.769531 302.425781 25.933594 250.859375 9.359375 C 275.644531 31.765625 295.0625 68.140625 305.726562 112.574219 L 366.578125 112.574219 " fill-opacity="1" fill-rule="nonzero"/></g><path fill="#ffffff" d="M 207.347656 18.105469 L 207.347656 112.574219 L 273.804688 112.574219 C 260.679688 63.996094 236.046875 27.777344 207.347656 18.105469 " fill-opacity="1" fill-rule="nonzero"/><path fill="#ffffff" d="M 110.125 112.574219 L 176.652344 112.574219 L 176.652344 18.105469 C 147.875 27.777344 123.242188 63.996094 110.125 112.574219 " fill-opacity="1" fill-rule="nonzero"/><g clip-path="url(#4f785c807e)"><path fill="#ffffff" d="M 133.066406 9.359375 C 81.574219 25.933594 39.523438 63.769531 17.421875 112.574219 L 78.199219 112.574219 C 88.867188 68.140625 108.28125 31.765625 133.066406 9.359375 " fill-opacity="1" fill-rule="nonzero"/></g></svg>