<svg xmlns="http://www.w3.org/2000/svg" xmlns:xlink="http://www.w3.org/1999/xlink" width="512" zoomAndPan="magnify" viewBox="0 0 384 383.999986" height="512" preserveAspectRatio="xMidYMid meet" version="1.0"><path fill="#ffffff" d="M 191.835938 -0.113281 C 85.824219 -0.113281 -0.113281 85.824219 -0.113281 191.835938 C -0.113281 297.84375 85.824219 383.78125 191.835938 383.78125 C 297.84375 383.78125 383.78125 297.84375 383.78125 191.835938 C 383.78125 85.824219 297.84375 -0.113281 191.835938 -0.113281 Z M 287.304688 287.234375 C 277.207031 297.332031 260.832031 297.332031 250.734375 287.234375 L 193.140625 229.648438 L 132.933594 289.851562 C 122.835938 299.953125 106.460938 299.953125 96.363281 289.851562 C 86.261719 279.75 86.261719 263.375 96.363281 253.273438 L 156.570312 193.070312 L 100.515625 137.019531 C 90.417969 126.914062 90.417969 110.546875 100.515625 100.445312 C 110.613281 90.34375 126.988281 90.34375 137.089844 100.445312 L 193.140625 156.5 L 246.578125 103.058594 C 256.675781 92.964844 273.058594 92.960938 283.152344 103.058594 C 293.257812 113.164062 293.257812 129.542969 283.152344 139.636719 L 229.714844 193.070312 L 287.304688 250.660156 C 297.40625 260.753906 297.40625 277.132812 287.304688 287.234375 Z M 287.304688 287.234375 " fill-opacity="1" fill-rule="nonzero"/></svg>